<svg width="72" height="72" viewBox="0 0 72 72" fill="none" xmlns="http://www.w3.org/2000/svg">
<path d="M36 64C51.464 64 64 51.464 64 36C64 20.536 51.464 8 36 8C20.536 8 8 20.536 8 36C8 51.464 20.536 64 36 64Z" fill="#D22F27"/>
<path d="M36 54C26.0589 54 18 45.9411 18 36C18 26.0589 26.0589 18 36 18C45.9411 18 54 26.0589 54 36C54 45.9411 45.9411 54 36 54Z" fill="#EA5A47"/>
<path d="M54.125 36C54.125 33.882 53.762 31.848 53.094 29.958C50.605 22.918 43.892 17.875 36 17.875" stroke="white" stroke-width="10" stroke-linecap="round" stroke-linejoin="round"/>
<path d="M36 46C41.5228 46 46 41.5228 46 36C46 30.4772 41.5228 26 36 26C30.4772 26 26 30.4772 26 36C26 41.5228 30.4772 46 36 46Z" fill="#F1B31C"/>
<path d="M36 41C38.7614 41 41 38.7614 41 36C41 33.2386 38.7614 31 36 31C33.2386 31 31 33.2386 31 36C31 38.7614 33.2386 41 36 41Z" fill="#FCEA2B"/>
<path d="M36 64C51.464 64 64 51.464 64 36C64 20.536 51.464 8 36 8C20.536 8 8 20.536 8 36C8 51.464 20.536 64 36 64Z" stroke="black" stroke-width="2"/>
</svg>
