<svg width="121" height="52" viewBox="0 0 121 52" fill="none" xmlns="http://www.w3.org/2000/svg">
<g clip-path="url(#clip0_28_29)">
<path d="M0.234375 3.21875V0.203125H12.625C14.5208 0.203125 16.0104 0.427083 17.0938 0.875C18.1771 1.3125 19.0104 1.94792 19.5938 2.78125C20.1771 3.60417 20.4688 4.51042 20.4688 5.5C20.4688 6.21875 20.3125 6.90104 20 7.54688C19.6979 8.19271 19.2552 8.76562 18.6719 9.26562C18.099 9.75521 17.3385 10.1615 16.3906 10.4844C17.4115 10.7448 18.1927 11.0312 18.7344 11.3438C19.5156 11.7812 20.1354 12.3958 20.5938 13.1875C21.0521 13.9688 21.2812 14.8438 21.2812 15.8125C21.2812 16.9688 20.9323 18.0365 20.2344 19.0156C19.5365 19.9844 18.5469 20.724 17.2656 21.2344C15.9948 21.7448 14.1302 22 11.6719 22H0.234375V18.9844H1.09375C1.66667 18.9844 2.05208 18.9375 2.25 18.8438C2.45833 18.7396 2.60417 18.599 2.6875 18.4219C2.77083 18.2344 2.8125 17.8229 2.8125 17.1875V5.03125C2.8125 4.38542 2.77083 3.97396 2.6875 3.79688C2.60417 3.61979 2.45833 3.47917 2.25 3.375C2.05208 3.27083 1.66667 3.21875 1.09375 3.21875H0.234375ZM8.21875 9.03125H10.6094C11.8594 9.03125 12.7812 8.92708 13.375 8.71875C13.9792 8.51042 14.4323 8.19792 14.7344 7.78125C15.0365 7.35417 15.1875 6.86458 15.1875 6.3125C15.1875 5.73958 15.0417 5.25 14.75 4.84375C14.4688 4.4375 14.0573 4.15104 13.5156 3.98438C12.974 3.80729 12.0052 3.71875 10.6094 3.71875H8.21875V9.03125ZM8.21875 12.2344V16.9531C8.22917 17.6198 8.25521 18.0104 8.29688 18.125C8.34896 18.2708 8.43229 18.375 8.54688 18.4375C8.67188 18.4896 9 18.5156 9.53125 18.5156H11.125C12.0521 18.5156 12.8177 18.4323 13.4219 18.2656C14.0365 18.0885 14.5573 17.7292 14.9844 17.1875C15.4115 16.6458 15.625 15.9948 15.625 15.2344C15.625 14.5885 15.474 14.0417 15.1719 13.5938C14.8698 13.1458 14.4167 12.8073 13.8125 12.5781C13.2083 12.349 12.2865 12.2344 11.0469 12.2344H8.21875Z" fill="url(#paint0_linear_28_29)"/>
</g>
<g clip-path="url(#clip1_28_29)">
<path d="M22.1562 0.203125H35.5938C36.4583 0.203125 37.401 0.28125 38.4219 0.4375C39.4531 0.59375 40.3802 0.9375 41.2031 1.46875C42.0365 2 42.6823 2.67188 43.1406 3.48438C43.599 4.29688 43.8281 5.21354 43.8281 6.23438C43.8281 7.89062 43.2344 9.23438 42.0469 10.2656C40.8698 11.2865 39.474 11.9531 37.8594 12.2656L42.3438 17.4844L42.5312 17.7188C42.8229 18.0729 43.0885 18.3385 43.3281 18.5156C43.5677 18.6823 43.8073 18.8021 44.0469 18.875C44.2865 18.9479 44.6198 18.9844 45.0469 18.9844H45.9844V22H39L32 12.6094H30.1875V16.9531C30.1875 17.7031 30.2292 18.1823 30.3125 18.3906C30.3958 18.5885 30.526 18.7396 30.7031 18.8438C30.8906 18.9375 31.2604 18.9844 31.8125 18.9844H32.8125V22H22.1562V18.9844H23.125C23.6354 18.9844 23.9948 18.9323 24.2031 18.8281C24.4219 18.7135 24.5833 18.5469 24.6875 18.3281C24.7396 18.2031 24.7656 17.8125 24.7656 17.1562V4.89062C24.7656 4.41146 24.724 4.07292 24.6406 3.875C24.5677 3.66667 24.4427 3.53125 24.2656 3.46875C24.0156 3.35417 23.7292 3.29688 23.4062 3.29688L22.9688 3.3125H22.1562V0.203125ZM30.1875 3.78125V9.42188H33.4219C34.6927 9.42188 35.6406 9.30729 36.2656 9.07812C36.901 8.83854 37.375 8.5 37.6875 8.0625C38.0104 7.625 38.1719 7.09375 38.1719 6.46875C38.1719 5.89583 38.0208 5.40625 37.7188 5C37.4271 4.58333 37.0052 4.27604 36.4531 4.07812C35.9115 3.88021 35.0208 3.78125 33.7812 3.78125H30.1875Z" fill="url(#paint1_linear_28_29)"/>
</g>
<g clip-path="url(#clip2_28_29)">
<path d="M2.73438 29.4688H4.79688L5.01562 30.2031H17.3125L17.5781 29.4688H19.6562L22.3594 37.1094L19.4531 38.125C18.8073 36.8542 18.3438 36.026 18.0625 35.6406C17.5104 34.8802 16.875 34.2812 16.1562 33.8438C15.6146 33.5104 15.0781 33.3438 14.5469 33.3438C14.2969 33.3438 14.125 33.4062 14.0312 33.5312C13.9375 33.6458 13.8906 33.9167 13.8906 34.3438V46.875C13.8906 47.6146 13.9167 48.0781 13.9688 48.2656C14.0208 48.4531 14.1094 48.6042 14.2344 48.7188C14.3594 48.8229 14.5312 48.8958 14.75 48.9375C14.9688 48.9688 15.5521 48.9844 16.5 48.9844V52H5.875V48.9844H6.51562C7.22396 48.9844 7.67708 48.9427 7.875 48.8594C8.07292 48.7656 8.22396 48.6094 8.32812 48.3906C8.43229 48.1615 8.48438 47.6927 8.48438 46.9844V34.1719C8.48438 33.8073 8.44271 33.5781 8.35938 33.4844C8.27604 33.3906 8.09896 33.3438 7.82812 33.3438C7.28646 33.3438 6.68229 33.5469 6.01562 33.9531C5.34896 34.3594 4.75521 34.9323 4.23438 35.6719C4.02604 35.9635 3.58333 36.7812 2.90625 38.125L0.046875 37.1094L2.73438 29.4688ZM23.5469 30.2031H34.1875V33.2188H33.2031C32.6615 33.2188 32.2917 33.276 32.0938 33.3906C31.8958 33.4948 31.7552 33.651 31.6719 33.8594C31.5885 34.0573 31.5469 34.4948 31.5469 35.1719V38.9688H39.4844V34.8906C39.4844 34.3906 39.4531 34.0521 39.3906 33.875C39.3073 33.625 39.1667 33.4531 38.9688 33.3594C38.7708 33.2656 38.3333 33.2188 37.6562 33.2188H36.8281V30.2031H47.5V33.2188H46.6094C46.0052 33.2188 45.6042 33.2708 45.4062 33.375C45.2083 33.4688 45.0677 33.6146 44.9844 33.8125C44.9115 34 44.875 34.4531 44.875 35.1719V46.9844C44.875 47.7135 44.9219 48.1875 45.0156 48.4062C45.1198 48.6146 45.2708 48.7656 45.4688 48.8594C45.6771 48.9427 46.1458 48.9844 46.875 48.9844H47.5V52H36.8281V48.9844H37.5312C38.1875 48.9844 38.6302 48.9323 38.8594 48.8281C39.099 48.724 39.2604 48.5729 39.3438 48.375C39.4375 48.1771 39.4844 47.7135 39.4844 46.9844V42.375H31.5469V46.9844C31.5469 47.7135 31.5781 48.1667 31.6406 48.3438C31.7448 48.6042 31.9062 48.776 32.125 48.8594C32.3438 48.9427 32.7865 48.9844 33.4531 48.9844H34.1875V52H23.5469V48.9844H24.2656C24.8698 48.9844 25.2917 48.9323 25.5312 48.8281C25.7708 48.724 25.9323 48.5781 26.0156 48.3906C26.1094 48.2031 26.1562 47.7917 26.1562 47.1562V35.3125C26.1562 34.5729 26.1094 34.0938 26.0156 33.875C25.9323 33.6458 25.7969 33.4792 25.6094 33.375C25.4219 33.2708 25.0573 33.2188 24.5156 33.2188H23.5469V30.2031ZM57.7656 30.2031H62.6562L69.2031 47.0312C69.5573 47.9271 69.8698 48.4792 70.1406 48.6875C70.4219 48.8958 70.9323 48.9948 71.6719 48.9844V52H61.3594V48.9844L61.9844 48.9688C62.5573 48.9688 62.9583 48.8958 63.1875 48.75C63.4167 48.5938 63.5312 48.4062 63.5312 48.1875C63.5312 48 63.4323 47.6146 63.2344 47.0312L62.5938 45.0469H55.9531L55.1406 47.25C54.974 47.7188 54.8906 48.026 54.8906 48.1719C54.8906 48.3385 54.9479 48.4896 55.0625 48.625C55.1875 48.7604 55.3854 48.8594 55.6562 48.9219C55.8333 48.9635 56.3229 48.9844 57.125 48.9844V52H48.6875V48.9844C49.2292 48.9844 49.625 48.9375 49.875 48.8438C50.125 48.75 50.3281 48.6094 50.4844 48.4219C50.651 48.2344 50.8333 47.8854 51.0312 47.375L57.7656 30.2031ZM57.0938 41.9375H61.4531L59.3281 35.9375L57.0938 41.9375ZM72.9375 30.2031H81.7969L88.1875 42.9219V35.1406C88.1875 34.474 88.151 34.0573 88.0781 33.8906C87.974 33.6406 87.8333 33.4688 87.6562 33.375C87.4792 33.2708 87.1354 33.2188 86.625 33.2188H85.5625V30.2031H94.5625V33.2188H93.5625C93.0625 33.2188 92.7031 33.276 92.4844 33.3906C92.276 33.5052 92.1302 33.6615 92.0469 33.8594C91.9635 34.0573 91.9219 34.4844 91.9219 35.1406V52H87.4375L79.3438 35.9375V47.1719C79.3438 47.8177 79.3802 48.2292 79.4531 48.4062C79.5365 48.5833 79.6771 48.724 79.875 48.8281C80.0833 48.9323 80.4375 48.9844 80.9375 48.9844H81.9844V52H72.9375V48.9844H73.875C74.3958 48.9844 74.75 48.9427 74.9375 48.8594C75.1354 48.7656 75.2917 48.6094 75.4062 48.3906C75.5208 48.1719 75.5781 47.8438 75.5781 47.4062V34.9062C75.5781 34.4271 75.526 34.0781 75.4219 33.8594C75.3177 33.6302 75.1771 33.4688 75 33.375C74.8229 33.2708 74.526 33.2188 74.1094 33.2188H72.9375V30.2031ZM96.5469 30.2031H107.188V33.2188H106.203C105.661 33.2188 105.292 33.276 105.094 33.3906C104.896 33.4948 104.755 33.651 104.672 33.8594C104.589 34.0573 104.547 34.4948 104.547 35.1719V38.9688H112.484V34.8906C112.484 34.3906 112.453 34.0521 112.391 33.875C112.307 33.625 112.167 33.4531 111.969 33.3594C111.771 33.2656 111.333 33.2188 110.656 33.2188H109.828V30.2031H120.5V33.2188H119.609C119.005 33.2188 118.604 33.2708 118.406 33.375C118.208 33.4688 118.068 33.6146 117.984 33.8125C117.911 34 117.875 34.4531 117.875 35.1719V46.9844C117.875 47.7135 117.922 48.1875 118.016 48.4062C118.12 48.6146 118.271 48.7656 118.469 48.8594C118.677 48.9427 119.146 48.9844 119.875 48.9844H120.5V52H109.828V48.9844H110.531C111.188 48.9844 111.63 48.9323 111.859 48.8281C112.099 48.724 112.26 48.5729 112.344 48.375C112.438 48.1771 112.484 47.7135 112.484 46.9844V42.375H104.547V46.9844C104.547 47.7135 104.578 48.1667 104.641 48.3438C104.745 48.6042 104.906 48.776 105.125 48.8594C105.344 48.9427 105.786 48.9844 106.453 48.9844H107.188V52H96.5469V48.9844H97.2656C97.8698 48.9844 98.2917 48.9323 98.5312 48.8281C98.7708 48.724 98.9323 48.5781 99.0156 48.3906C99.1094 48.2031 99.1562 47.7917 99.1562 47.1562V35.3125C99.1562 34.5729 99.1094 34.0938 99.0156 33.875C98.9323 33.6458 98.7969 33.4792 98.6094 33.375C98.4219 33.2708 98.0573 33.2188 97.5156 33.2188H96.5469V30.2031Z" fill="white"/>
</g>
<defs>
<linearGradient id="paint0_linear_28_29" x1="-3.88" y1="8.5" x2="37.8908" y2="10.8046" gradientUnits="userSpaceOnUse">
<stop stop-color="#FCA5FE"/>
<stop offset="0.333333" stop-color="#F878FB" stop-opacity="0.786458"/>
<stop offset="0.541884" stop-color="#49DAE3" stop-opacity="0.81"/>
<stop offset="1" stop-color="#76E3EA"/>
</linearGradient>
<linearGradient id="paint1_linear_28_29" x1="18" y1="8.5" x2="61.5" y2="11" gradientUnits="userSpaceOnUse">
<stop stop-color="#FCA5FE"/>
<stop offset="0.333333" stop-color="#F878FB" stop-opacity="0.786458"/>
<stop offset="0.541884" stop-color="#49DAE3" stop-opacity="0.81"/>
<stop offset="1" stop-color="#76E3EA"/>
</linearGradient>
<clipPath id="clip0_28_29">
<rect width="22" height="22" fill="white"/>
</clipPath>
<clipPath id="clip1_28_29">
<rect width="24" height="22" fill="white" transform="translate(22)"/>
</clipPath>
<clipPath id="clip2_28_29">
<rect width="121" height="23" fill="white" transform="translate(0 29)"/>
</clipPath>
</defs>
</svg>
